<?xml version="1.0" encoding="UTF-8" standalone="no"?>
<!DOCTYPE svg PUBLIC "-//W3C//DTD SVG 1.1//EN"
 "http://www.w3.org/Graphics/SVG/1.1/DTD/svg11.dtd">
<!-- Generated by graphviz version 2.47.0 (20210316.0004)
 -->
<!-- Title: dependencies Pages: 1 -->
<svg width="819pt" height="284pt"
 viewBox="0.00 0.00 819.00 284.00" xmlns="http://www.w3.org/2000/svg" xmlns:xlink="http://www.w3.org/1999/xlink">
<g id="graph0" class="graph" transform="scale(1 1) rotate(0) translate(4 280)">
<title>dependencies</title>
<polygon fill="white" stroke="transparent" points="-4,4 -4,-280 815,-280 815,4 -4,4"/>
<text text-anchor="start" x="384.51" y="-42.4" font-family="Times-12" font-weight="bold" font-size="14.00">Legend</text>
<polygon fill="#ffffb3" stroke="transparent" points="171.5,-10 171.5,-30 191.5,-30 191.5,-10 171.5,-10"/>
<text text-anchor="start" x="195.13" y="-15.4" font-family="Times-12" font-size="14.00"> &#160;Declarations</text>
<polygon fill="#8dd3c7" stroke="transparent" points="284.5,-10 284.5,-30 304.5,-30 304.5,-10 284.5,-10"/>
<text text-anchor="start" x="308.23" y="-15.4" font-family="Times-12" font-size="14.00"> &#160;Module</text>
<polygon fill="#80b1d3" stroke="transparent" points="370.5,-10 370.5,-30 390.5,-30 390.5,-10 370.5,-10"/>
<text text-anchor="start" x="394.28" y="-15.4" font-family="Times-12" font-size="14.00"> &#160;Bootstrap</text>
<polygon fill="#fdb462" stroke="transparent" points="467.5,-10 467.5,-30 487.5,-30 487.5,-10 467.5,-10"/>
<text text-anchor="start" x="491.17" y="-15.4" font-family="Times-12" font-size="14.00"> &#160;Providers</text>
<polygon fill="#fb8072" stroke="transparent" points="563.5,-10 563.5,-30 583.5,-30 583.5,-10 563.5,-10"/>
<text text-anchor="start" x="587.23" y="-15.4" font-family="Times-12" font-size="14.00"> &#160;Exports</text>
<g id="clust1" class="cluster">
<title>cluster_AuthModule</title>
<polygon fill="none" stroke="black" stroke-dasharray="1,5" points="8,-70 8,-268 803,-268 803,-70 8,-70"/>
</g>
<g id="clust4" class="cluster">
<title>cluster_AuthModule_exports</title>
<polygon fill="none" stroke="black" points="374,-208 374,-260 480,-260 480,-208 374,-208"/>
</g>
<g id="clust3" class="cluster">
<title>cluster_AuthModule_imports</title>
<polygon fill="none" stroke="black" points="438,-78 438,-130 795,-130 795,-78 438,-78"/>
</g>
<g id="clust6" class="cluster">
<title>cluster_AuthModule_providers</title>
<polygon fill="none" stroke="black" points="16,-78 16,-130 430,-130 430,-78 16,-78"/>
</g>
<!-- CompaniesModule -->
<g id="node1" class="node">
<title>CompaniesModule</title>
<polygon fill="#8dd3c7" stroke="black" points="787.04,-122 784.04,-126 763.04,-126 760.04,-122 664.96,-122 664.96,-86 787.04,-86 787.04,-122"/>
<text text-anchor="middle" x="726" y="-99.8" font-family="Times,serif" font-size="14.00">CompaniesModule</text>
</g>
<!-- AuthModule -->
<g id="node4" class="node">
<title>AuthModule</title>
<polygon fill="#8dd3c7" stroke="black" points="470.55,-187 467.55,-191 446.55,-191 443.55,-187 383.45,-187 383.45,-151 470.55,-151 470.55,-187"/>
<text text-anchor="middle" x="427" y="-164.8" font-family="Times,serif" font-size="14.00">AuthModule</text>
</g>
<!-- CompaniesModule&#45;&gt;AuthModule -->
<g id="edge1" class="edge">
<title>CompaniesModule&#45;&gt;AuthModule</title>
<path fill="none" stroke="black" d="M726,-122.28C726,-143.32 726,-175 726,-175 726,-175 480.8,-175 480.8,-175"/>
<polygon fill="black" stroke="black" points="480.8,-171.5 470.8,-175 480.8,-178.5 480.8,-171.5"/>
</g>
<!-- RolesModule -->
<g id="node2" class="node">
<title>RolesModule</title>
<polygon fill="#8dd3c7" stroke="black" points="646.94,-122 643.94,-126 622.94,-126 619.94,-122 555.06,-122 555.06,-86 646.94,-86 646.94,-122"/>
<text text-anchor="middle" x="601" y="-99.8" font-family="Times,serif" font-size="14.00">RolesModule</text>
</g>
<!-- RolesModule&#45;&gt;AuthModule -->
<g id="edge2" class="edge">
<title>RolesModule&#45;&gt;AuthModule</title>
<path fill="none" stroke="black" d="M601,-122.02C601,-139.37 601,-163 601,-163 601,-163 480.91,-163 480.91,-163"/>
<polygon fill="black" stroke="black" points="480.91,-159.5 470.91,-163 480.91,-166.5 480.91,-159.5"/>
</g>
<!-- UsersModule -->
<g id="node3" class="node">
<title>UsersModule</title>
<polygon fill="#8dd3c7" stroke="black" points="537.92,-122 534.92,-126 513.92,-126 510.92,-122 446.08,-122 446.08,-86 537.92,-86 537.92,-122"/>
<text text-anchor="middle" x="492" y="-99.8" font-family="Times,serif" font-size="14.00">UsersModule</text>
</g>
<!-- UsersModule&#45;&gt;AuthModule -->
<g id="edge3" class="edge">
<title>UsersModule&#45;&gt;AuthModule</title>
<path fill="none" stroke="black" d="M458.53,-122.11C458.53,-122.11 458.53,-140.99 458.53,-140.99"/>
<polygon fill="black" stroke="black" points="455.03,-140.99 458.53,-150.99 462.03,-140.99 455.03,-140.99"/>
</g>
<!-- AuthService  -->
<g id="node5" class="node">
<title>AuthService </title>
<polygon fill="#fb8072" stroke="black" points="471.98,-252 382.02,-252 382.02,-216 471.98,-216 471.98,-252"/>
<text text-anchor="middle" x="427" y="-229.8" font-family="Times,serif" font-size="14.00">AuthService </text>
</g>
<!-- AuthModule&#45;&gt;AuthService  -->
<g id="edge4" class="edge">
<title>AuthModule&#45;&gt;AuthService </title>
<path fill="none" stroke="black" stroke-dasharray="5,2" d="M427,-187.11C427,-187.11 427,-205.99 427,-205.99"/>
<polygon fill="black" stroke="black" points="423.5,-205.99 427,-215.99 430.5,-205.99 423.5,-205.99"/>
</g>
<!-- AuthService -->
<g id="node6" class="node">
<title>AuthService</title>
<ellipse fill="#fdb462" stroke="black" cx="363" cy="-104" rx="59.11" ry="18"/>
<text text-anchor="middle" x="363" y="-99.8" font-family="Times,serif" font-size="14.00">AuthService</text>
</g>
<!-- AuthService&#45;&gt;AuthModule -->
<g id="edge5" class="edge">
<title>AuthService&#45;&gt;AuthModule</title>
<path fill="none" stroke="black" d="M402.77,-117.47C402.77,-117.47 402.77,-140.86 402.77,-140.86"/>
<polygon fill="black" stroke="black" points="399.27,-140.86 402.77,-150.86 406.27,-140.86 399.27,-140.86"/>
</g>
<!-- JwtStrategy -->
<g id="node7" class="node">
<title>JwtStrategy</title>
<ellipse fill="#fdb462" stroke="black" cx="229" cy="-104" rx="56.76" ry="18"/>
<text text-anchor="middle" x="229" y="-99.8" font-family="Times,serif" font-size="14.00">JwtStrategy</text>
</g>
<!-- JwtStrategy&#45;&gt;AuthModule -->
<g id="edge6" class="edge">
<title>JwtStrategy&#45;&gt;AuthModule</title>
<path fill="none" stroke="black" d="M229,-122.02C229,-139.37 229,-163 229,-163 229,-163 373.06,-163 373.06,-163"/>
<polygon fill="black" stroke="black" points="373.06,-166.5 383.06,-163 373.06,-159.5 373.06,-166.5"/>
</g>
<!-- LocalStrategy -->
<g id="node8" class="node">
<title>LocalStrategy</title>
<ellipse fill="#fdb462" stroke="black" cx="89" cy="-104" rx="65.41" ry="18"/>
<text text-anchor="middle" x="89" y="-99.8" font-family="Times,serif" font-size="14.00">LocalStrategy</text>
</g>
<!-- LocalStrategy&#45;&gt;AuthModule -->
<g id="edge7" class="edge">
<title>LocalStrategy&#45;&gt;AuthModule</title>
<path fill="none" stroke="black" d="M89,-122.28C89,-143.32 89,-175 89,-175 89,-175 373.16,-175 373.16,-175"/>
<polygon fill="black" stroke="black" points="373.16,-178.5 383.16,-175 373.16,-171.5 373.16,-178.5"/>
</g>
</g>
</svg>
